<?xml version="1.0" encoding="UTF-8" standalone="no"?>
<svg width="400" height="400" viewBox="0 0 400 400" fill="none" xmlns="http://www.w3.org/2000/svg">
  <!-- 背景 -->
  <rect width="400" height="400" fill="#F0F7FF"/>
  
  <!-- 书本封面 -->
  <rect x="50" y="50" width="300" height="300" rx="10" fill="#FFFFFF" stroke="#8CC63F" stroke-width="6"/>
  
  <!-- 书本标题 -->
  <text x="200" y="100" font-family="Arial" font-size="24" font-weight="bold" fill="#8CC63F" text-anchor="middle">Magical Adventure</text>
  
  <!-- 魔法城堡 -->
  <path d="M200 150 L230 150 L230 200 L260 200 L260 250 L140 250 L140 200 L170 200 L170 150 Z" fill="#8CC63F" stroke="#333333" stroke-width="2"/>
  <path d="M170 150 L170 120 L200 100 L230 120 L230 150 Z" fill="#8CC63F" stroke="#333333" stroke-width="2"/>
  
  <!-- 魔法星星 -->
  <path d="M100 120 L105 130 L115 130 L107 140 L110 150 L100 145 L90 150 L93 140 L85 130 L95 130 Z" fill="#FFD700" stroke="#333333" stroke-width="1"/>
  <path d="M300 120 L305 130 L315 130 L307 140 L310 150 L300 145 L290 150 L293 140 L285 130 L295 130 Z" fill="#FFD700" stroke="#333333" stroke-width="1"/>
  <path d="M200 300 L205 310 L215 310 L207 320 L210 330 L200 325 L190 330 L193 320 L185 310 L195 310 Z" fill="#FFD700" stroke="#333333" stroke-width="1"/>
  
  <!-- 小孩子人物 -->
  <circle cx="200" cy="200" r="25" fill="#4A89DC" stroke="#333333" stroke-width="2"/> <!-- 头部 -->
  <rect x="190" y="225" width="20" height="35" rx="5" fill="#4A89DC" stroke="#333333" stroke-width="2"/> <!-- 身体 -->
  
  <!-- 魔法棒 -->
  <line x1="220" y1="210" x2="250" y2="190" stroke="#333333" stroke-width="2"/>
  <circle cx="255" cy="185" r="5" fill="#FFD700" stroke="#333333" stroke-width="1"/>
</svg>
